<?xml version="1.0" standalone="no"?><!DOCTYPE svg PUBLIC "-//W3C//DTD SVG 1.1//EN" "http://www.w3.org/Graphics/SVG/1.1/DTD/svg11.dtd"><svg t="1512700349350" class="icon" style="" viewBox="0 0 1024 1024" version="1.1" xmlns="http://www.w3.org/2000/svg" p-id="3639" xmlns:xlink="http://www.w3.org/1999/xlink" width="16" height="16"><defs><style type="text/css"></style></defs><path d="M481.457892 63.627133c-264.080537 0-478.159264 214.078727-478.159264 478.162334 0 264.079514 214.078727 478.160287 478.159264 478.160287 264.064164 0 478.142891-214.07975 478.142891-478.160287C959.600783 277.706883 745.522056 63.627133 481.457892 63.627133zM683.378717 743.326553c-0.007163 0.008186-0.01535 0.016373-0.023536 0.023536-13.292748 13.292748-34.844599 13.30605-48.15372 0.021489L481.520313 589.965699 328.113411 743.664244c-0.008186 0.007163-0.016373 0.017396-0.023536 0.022513-13.293771 13.293771-34.843576 13.307074-48.152696 0.023536-13.332656-13.30912-13.355169-34.878368-0.063445-48.194652l153.406902-153.697521L279.581068 388.408147c-13.31526-13.291724-13.33675-34.860972-0.046049-48.177256 0.008186-0.007163 0.016373-0.01535 0.023536-0.023536 13.275351-13.275351 34.827203-13.287631 48.136324-0.004093l153.697521 153.407925 153.392576-153.701614c0.008186-0.007163 0.016373-0.01535 0.022513-0.022513 13.293771-13.293771 34.845623-13.30605 48.171116-0.00614 13.317307 13.291724 13.335726 34.860972 0.046049 48.177256l-153.408949 153.700591L683.316296 695.166693C696.631556 708.458417 696.653045 730.029712 683.378717 743.326553z" p-id="3640" fill="#cccccc"></path></svg>