<?xml version="1.0" standalone="no"?><!DOCTYPE svg PUBLIC "-//W3C//DTD SVG 1.1//EN" "http://www.w3.org/Graphics/SVG/1.1/DTD/svg11.dtd"><svg t="1512222883972" class="icon" style="" viewBox="0 0 1024 1024" version="1.1" xmlns="http://www.w3.org/2000/svg" p-id="1093" xmlns:xlink="http://www.w3.org/1999/xlink" width="32" height="32"><defs><style type="text/css"></style></defs><path d="M857.181 502.668l0.027-0.026c0-197.166-120.663-374.753-323.137-374.753H491.64c-189.023 0-323.108 165.982-323.108 374.753v0.026c-53.649 23.896-92.119 84.724-92.119 156.467v61.569c0 92.394 63.633 167.468 141.866 167.468h50.625V491.475h-50.625c-0.826 0-1.568 0.247-2.394 0.276 0-168.044 114.067-310.542 275.785-310.542h42.402c174.064 0 275.783 157.429 275.783 310.542-0.824-0.029-1.568-0.276-2.391-0.276h-50.626v396.697h50.626c78.233 0 141.864-75.074 141.864-167.468v-61.569c0-71.743-38.471-132.571-92.147-156.467z" fill="#ffffff" p-id="1094"></path></svg>