<?xml version="1.0" standalone="no"?><!DOCTYPE svg PUBLIC "-//W3C//DTD SVG 1.1//EN" "http://www.w3.org/Graphics/SVG/1.1/DTD/svg11.dtd"><svg t="1512713345416" class="icon" style="" viewBox="0 0 1024 1024" version="1.1" xmlns="http://www.w3.org/2000/svg" p-id="11457" xmlns:xlink="http://www.w3.org/1999/xlink" width="48" height="48"><defs><style type="text/css"></style></defs><path d="M512 896A384 384 0 1 1 512 128a384 384 0 0 1 0 768zM512 192a320 320 0 1 0 0 640A320 320 0 0 0 512 192z m160 448h-192a32 32 0 0 1-32-32v-256a32 32 0 0 1 64 0V576h160a32 32 0 0 1 0 64z" fill="#cccccc" p-id="11458"></path></svg>