<?xml version="1.0" standalone="no"?><!DOCTYPE svg PUBLIC "-//W3C//DTD SVG 1.1//EN" "http://www.w3.org/Graphics/SVG/1.1/DTD/svg11.dtd"><svg t="1512093530978" class="icon" style="" viewBox="0 0 1024 1024" version="1.1" xmlns="http://www.w3.org/2000/svg" p-id="3315" xmlns:xlink="http://www.w3.org/1999/xlink" width="64" height="64"><defs><style type="text/css"></style></defs><path d="M624.64 220.16l-33.28-7.68-99.84 409.6c-66.56-53.76-163.84-28.16-197.12 38.4-10.24 20.48-5.12 48.64 0 61.44 28.16 74.24 122.88 69.12 189.44 10.24 28.16-23.04 35.84-48.64 51.2-110.08l64-253.44c38.4 7.68 89.6 71.68 94.72 115.2 2.56 28.16-5.12 64-25.6 84.48-5.12 5.12-20.48 23.04-12.8 23.04 15.36-2.56 20.48-7.68 35.84-20.48 12.8-12.8 25.6-33.28 30.72-46.08 51.2-145.92-112.64-192-97.28-304.64" p-id="3316" fill="#ffffff"></path><path d="M512 921.6c-56.32 0-110.08-10.24-158.72-33.28-48.64-20.48-92.16-51.2-130.56-87.04-38.4-38.4-66.56-81.92-87.04-130.56-23.04-48.64-33.28-102.4-33.28-158.72s10.24-110.08 33.28-158.72c20.48-48.64 51.2-92.16 87.04-130.56 38.4-38.4 81.92-66.56 130.56-87.04 99.84-43.52 217.6-43.52 320 0 48.64 20.48 92.16 51.2 130.56 87.04 38.4 38.4 66.56 81.92 87.04 130.56 20.48 51.2 33.28 104.96 33.28 158.72 0 56.32-10.24 110.08-33.28 158.72-20.48 48.64-51.2 92.16-87.04 130.56-38.4 38.4-81.92 66.56-130.56 87.04-51.2 23.04-104.96 33.28-161.28 33.28z m0-768c-48.64 0-94.72 10.24-138.24 28.16s-81.92 43.52-115.2 76.8-58.88 71.68-76.8 115.2S153.6 463.36 153.6 512s10.24 94.72 28.16 138.24c17.92 43.52 43.52 81.92 76.8 115.2s71.68 58.88 115.2 76.8c89.6 38.4 189.44 38.4 279.04 0 43.52-17.92 81.92-43.52 115.2-76.8s58.88-71.68 76.8-115.2 28.16-92.16 28.16-138.24c0-48.64-10.24-94.72-28.16-138.24-17.92-43.52-43.52-81.92-76.8-115.2s-71.68-58.88-115.2-76.8C606.72 163.84 560.64 153.6 512 153.6z" p-id="3317" fill="#ffffff"></path></svg>