<?xml version="1.0" standalone="no"?><!DOCTYPE svg PUBLIC "-//W3C//DTD SVG 1.1//EN" "http://www.w3.org/Graphics/SVG/1.1/DTD/svg11.dtd"><svg t="1512396004361" class="icon" style="" viewBox="0 0 1024 1024" version="1.1" xmlns="http://www.w3.org/2000/svg" p-id="1712" xmlns:xlink="http://www.w3.org/1999/xlink" width="16" height="16"><defs><style type="text/css"></style></defs><path d="M496.23 718.362c0.973 0.486 1.824 1.338 2.797 1.703 17.758 8.514 39.651 5.717 53.882-9.365l325.116-343.725c17.758-18.731 16.907-48.287-1.824-66.045s-48.287-16.907-66.045 1.824l-291.79 308.453-296.047-307.236c-17.881-18.609-47.436-19.096-66.045-1.216-9.487 9.122-14.351 21.407-14.352 33.57 0 11.676 4.378 23.353 13.137 32.353l328.278 340.563c0.608 0.608 1.581 0.851 2.189 1.581 0.487 0.487 0.851 0.973 1.338 1.581 2.797 2.797 6.203 4.135 9.365 5.959v0zM496.23 718.362z" p-id="1713" fill="#dbdbdb"></path></svg>