<?xml version="1.0" standalone="no"?><!DOCTYPE svg PUBLIC "-//W3C//DTD SVG 1.1//EN" "http://www.w3.org/Graphics/SVG/1.1/DTD/svg11.dtd"><svg t="1513245034755" class="icon" style="" viewBox="0 0 1024 1024" version="1.1" xmlns="http://www.w3.org/2000/svg" p-id="3581" xmlns:xlink="http://www.w3.org/1999/xlink" width="32" height="32"><defs><style type="text/css"></style></defs><path d="M516.654545 9.309091C237.381818 9.309091 10.860606 235.830303 10.860606 515.10303s226.521212 505.793939 505.793939 505.79394 505.793939-226.521212 505.79394-505.79394C1022.448485 237.381818 795.927273 9.309091 516.654545 9.309091z m0 982.109091c-262.206061 0-474.763636-212.557576-474.763636-474.763637 0-262.206061 212.557576-474.763636 474.763636-474.763636 262.206061 0 474.763636 212.557576 474.763637 474.763636 0 262.206061-212.557576 474.763636-474.763637 474.763637z" p-id="3582" fill="#ffffff"></path><path d="M705.939394 474.763636L470.109091 325.818182c-21.721212-13.963636-51.2-7.757576-63.612121 13.963636-4.654545 7.757576-7.757576 15.515152-7.757576 24.824243v297.890909c0 26.375758 20.169697 46.545455 46.545454 46.545454 9.309091 0 17.066667-3.10303 24.824243-7.757576l237.381818-148.945454c21.721212-13.963636 27.927273-41.890909 13.963636-63.612121-4.654545-4.654545-9.309091-9.309091-15.515151-13.963637z" p-id="3583" fill="#ffffff"></path></svg>